# Created by Kenney (www.kenney.nl)

mtllib Imp.mtl

v 11 -5 4
v 10 -5 4
v 10.96593 -4.741181 4
v 10 -4 4
v 10.86602 -4.5 4
v 10.70711 -4.292893 4
v 10.5 -4.133975 4
v 10.25882 -4.034074 4
v 10.70711 -4.292893 -4
v 10.5 -4.133975 -4
v 10.96593 -4.741181 -4
v 11 -5 -4
v 10.25882 -4.034074 -4
v 10 -4 -4
v 10 -5 -4
v 10.86602 -4.5 -4
v 10.25882 -5.965926 4
v 10.25882 -5.965926 -4
v 10 -6 4
v 10.5 -5.866025 4
v 10.5 -5.866025 -4
v 10.70711 -5.707107 4
v 10.70711 -5.707107 -4
v 10.86602 -5.5 4
v 10 -6 -4
v 10.96593 -5.258819 -4
v 10.86602 -5.5 -4
v 10.96593 -5.258819 4
v 7 4 -6
v 7 5 -6
v 7 4 6
v 7 5 6
v 8 4 -6
v 8 4 6
v 8 -9 6
v 7 -10 6
v 7 -9 6
v 8 -9 -6
v 7 -10 -6
v 7 -9 -6
v 6 6 -6
v 6 7 -6
v 6 6 6
v 6 7 6
v 7 6 -6
v 7 6 6
v 6 -11 6
v 6 -10 6
v 6 -11 -6
v 6 -10 -6
v 5 7 -6
v 5 8 -6
v 5 7 6
v 5 8 6
v 4.258819 -12.96593 4
v 4.258819 -12.96593 -4
v 4 -13 4
v 4.5 -12.86602 4
v 4.5 -12.86602 -4
v 4.707107 -12.70711 4
v 4.707107 -12.70711 -4
v 4.866025 -12.5 4
v 4 -13 -4
v 4.965926 -12.25882 -4
v 4.866025 -12.5 -4
v 4.965926 -12.25882 4
v 4 -12 -4
v 4 -12 4
v 5 -12 -4
v 5 -12 4
v 3.5 -12.86602 4
v 3.5 -12.86602 -4
v 3.292893 -12.70711 4
v 3.292893 -12.70711 -4
v 3.133975 -12.5 -4
v 3.034074 -12.25882 -4
v 3.133975 -12.5 4
v 3 -12 4
v 3.034074 -12.25882 4
v 3 -12 -4
v 3.741181 -12.96593 4
v 3.741181 -12.96593 -4
v -2.741181 -12.96593 4
v -2.741181 -12.96593 -4
v -3 -13 4
v -2.5 -12.86602 4
v -2.5 -12.86602 -4
v -2.292893 -12.70711 4
v -2.292893 -12.70711 -4
v -2.133975 -12.5 4
v -3 -13 -4
v -2.034074 -12.25882 -4
v -2.133975 -12.5 -4
v -2.034074 -12.25882 4
v -3 -12 -4
v -3 -12 4
v -2 -12 -4
v -2 -12 4
v -3.5 -12.86602 4
v -3.5 -12.86602 -4
v -3.707107 -12.70711 4
v -3.707107 -12.70711 -4
v -3.866025 -12.5 -4
v -3.965926 -12.25882 -4
v -3.866025 -12.5 4
v -4 -12 4
v -3.965926 -12.25882 4
v -4 -12 -4
v -3.258819 -12.96593 4
v -3.258819 -12.96593 -4
v -5 -10 -6
v -5 -11 -6
v -5 -10 6
v -5 -11 6
v -6 -10 -6
v -6 -10 6
v -6 -9 -6
v -6 -9 6
v -7 -9 -6
v -7 -9 6
v -7 4 -6
v -7 3 -6
v -7 4 6
v -7 3 6
v -8 4 -6
v -8 4 6
v -9 7 -6
v -8 7 -6
v -8 8 -6
v -8 8 6
v -8 7 6
v -9 7 6
v -8 5 -6
v -8 5 6
v -9 5 -6
v -9 5 6
v -9.707107 -4.292893 -4
v -9.866025 -4.5 -4
v -9 -4 -4
v -9.5 -4.133975 -4
v -9.258819 -4.034074 -4
v -9.965926 -4.741181 -4
v -10 -5 -4
v -9 -5 -4
v -9 -4 4
v -9.258819 -4.034074 4
v -9 -5 4
v -10 -5 4
v -9.5 -4.133975 4
v -9.707107 -4.292893 4
v -9.965926 -4.741181 4
v -9.866025 -4.5 4
v -9.5 -5.866025 4
v -9.5 -5.866025 -4
v -9.707107 -5.707107 4
v -9.707107 -5.707107 -4
v -9.866025 -5.5 -4
v -9.965926 -5.258819 -4
v -9.866025 -5.5 4
v -9.965926 -5.258819 4
v -9 -6 4
v -9 -6 -4
v -9.258819 -5.965926 4
v -9.258819 -5.965926 -4
v 5 3 -6
v 5 3 6
v -7 8 -6
v -7 8 6
v -7 7 -6
v -7 7 6
v 6 3 -6
v 6 3 6
v 6 2 -6
v 6 2 6
v 5 2 6
v 5 2 -6
v 5 -1 -6
v 5 -1 6
v 4 3 -6
v 4 3 6
v 4 -1 6
v 4 -1 -6
v 4 2 -6
v 4 2 6
v -4 3 -6
v -4 3 6
v -4 2 6
v -4 2 -6
v -5 3 -6
v -5 3 6
v -5 2 6
v -5 2 -6
v -6 3 -6
v -6 3 6
v -6 2 -6
v -6 2 6
v -7 2 6
v -7 2 -6
v 6 -1 -6
v 6 -1 6
v 4 0 -6
v 4 0 6
v 3 2 -6
v 3 2 6
v 3 0 6
v 3 0 -6
v 3 -2 -6
v 3 -2 6
v -2 2 -6
v -2 2 6
v -2 -2 6
v -2 -2 -6
v -2 0 -6
v -2 0 6
v -3 2 -6
v -3 2 6
v -3 0 6
v -3 0 -6
v -3 -1 -6
v -3 -1 6
v -5 -1 6
v -5 -1 -6
v 3 -1 6
v 3 -1 -6
v -3 -2 6
v -3 -2 -6
v 4 -11 6
v 4 -11 -6
v 4 -2 -6
v 4 -2 6
v -4 -1 -6
v -4 -1 6
v -4 -2 6
v -4 -2 -6
v -4 -11 -6
v -4 -11 6
v 8 -4 -4
v 8 -4 4
v 8 -6 4
v 8 -6 -4
v -7 -4 -4
v -7 -6 -4
v -7 -4 4
v -7 -6 4
v 5 -11 -4
v 5 -11 4
v 3 -11 -4
v 3 -11 4
v -2 -11 -4
v -2 -11 4
v -4 -11 -4
v -4 -11 4

vn 0 0 1
vn 0.7071068 0.7071068 0
vn 0.5 0.8660254 0
vn 0.9659259 0.2588191 0
vn 0.9914449 0.1305262 0
vn 0.2588191 0.9659258 0
vn 0.1305262 0.9914449 0
vn 0 0 -1
vn 0.8660254 0.5 0
vn 0 -1 0
vn -1 0 0
vn 0.2588191 -0.9659259 0
vn 0.1305262 -0.9914449 0
vn 0.5 -0.8660254 0
vn 0.7071068 -0.7071068 0
vn 0.8660254 -0.5 0
vn 0.9659259 -0.2588191 0
vn 0 1 0
vn 0.9914449 -0.1305262 0
vn -0.5 -0.8660254 0
vn -0.7071068 -0.7071068 0
vn -0.8660254 -0.5 0
vn -0.9659259 -0.2588191 0
vn -0.9914449 -0.1305262 0
vn -0.1305262 -0.9914449 0
vn -0.2588191 -0.9659259 0
vn 1 0 0
vn -0.7071068 0.7071068 0
vn -0.1305262 0.9914449 0
vn -0.2588191 0.9659259 0
vn -0.5 0.8660254 0
vn -0.9914449 0.1305262 0
vn -0.9659259 0.2588191 0
vn -0.8660254 0.5 0

vt 0.1875 0.1875
vt 0.8125 0.1875
vt 0.9375 0.1875

usemtl Imp

f 3/1/1 2/1/1 1/1/1
f 2/1/1 3/1/1 4/1/1
f 4/1/1 3/1/1 5/1/1
f 4/1/1 5/1/1 6/1/1
f 4/1/1 6/1/1 7/1/1
f 4/1/1 7/1/1 8/1/1
f 10/1/3 6/1/2 9/1/2
f 6/1/2 10/1/3 7/1/3
f 3/1/4 12/1/5 11/1/4
f 12/1/5 3/1/4 1/1/5
f 14/1/7 8/1/6 13/1/6
f 8/1/6 14/1/7 4/1/7
f 15/1/8 11/1/8 12/1/8
f 11/1/8 15/1/8 14/1/8
f 11/1/8 14/1/8 16/1/8
f 16/1/8 14/1/8 9/1/8
f 9/1/8 14/1/8 10/1/8
f 10/1/8 14/1/8 13/1/8
f 6/1/2 16/1/9 9/1/2
f 16/1/9 6/1/2 5/1/9
f 2/1/10 12/1/10 1/1/10
f 12/1/10 2/1/10 15/1/10
f 2/1/11 14/1/11 15/1/11
f 14/1/11 2/1/11 4/1/11
f 5/1/9 11/1/4 16/1/9
f 11/1/4 5/1/9 3/1/4
f 13/1/6 7/1/3 10/1/3
f 7/1/3 13/1/6 8/1/6
f 19/1/13 18/1/12 17/1/12
f 17/1/12 21/1/14 20/1/14
f 20/1/14 23/1/15 22/1/15
f 23/1/15 24/1/16 22/1/15
f 23/1/15 20/1/14 21/1/14
f 21/1/14 17/1/12 18/1/12
f 18/1/12 19/1/13 25/1/13
f 28/1/17 27/1/16 26/1/17
f 19/1/11 15/1/11 25/1/11
f 15/1/11 19/1/11 2/1/11
f 15/1/18 1/1/18 12/1/18
f 1/1/18 15/1/18 2/1/18
f 15/1/8 18/1/8 25/1/8
f 18/1/8 15/1/8 21/1/8
f 21/1/8 15/1/8 23/1/8
f 23/1/8 15/1/8 27/1/8
f 27/1/8 15/1/8 26/1/8
f 26/1/8 15/1/8 12/1/8
f 1/1/19 26/1/17 12/1/19
f 26/1/17 1/1/19 28/1/17
f 27/1/16 28/1/17 24/1/16
f 24/1/16 23/1/15 27/1/16
f 17/1/1 2/1/1 19/1/1
f 2/1/1 17/1/1 20/1/1
f 2/1/1 20/1/1 22/1/1
f 2/1/1 22/1/1 24/1/1
f 2/1/1 24/1/1 28/1/1
f 2/1/1 28/1/1 1/1/1
f 31/1/11 30/1/11 29/1/11
f 30/1/11 31/1/11 32/1/11
f 30/1/8 33/1/8 29/1/8
f 30/1/2 34/1/2 33/1/2
f 34/1/2 30/1/2 32/1/2
f 31/1/10 33/1/10 34/1/10
f 33/1/10 31/1/10 29/1/10
f 32/1/1 31/1/1 34/1/1
f 37/1/1 36/1/1 35/1/1
f 36/1/15 38/1/15 35/1/15
f 38/1/15 36/1/15 39/1/15
f 40/1/18 35/1/18 38/1/18
f 35/1/18 40/1/18 37/1/18
f 36/1/11 40/1/11 39/1/11
f 40/1/11 36/1/11 37/1/11
f 40/1/8 38/1/8 39/1/8
f 43/1/11 42/1/11 41/1/11
f 42/1/11 43/1/11 44/1/11
f 42/1/8 45/1/8 41/1/8
f 42/1/2 46/1/2 45/1/2
f 46/1/2 42/1/2 44/1/2
f 43/1/10 45/1/10 46/1/10
f 45/1/10 43/1/10 41/1/10
f 44/1/1 43/1/1 46/1/1
f 48/1/1 47/1/1 36/1/1
f 47/1/15 39/1/15 36/1/15
f 39/1/15 47/1/15 49/1/15
f 50/1/18 36/1/18 39/1/18
f 36/1/18 50/1/18 48/1/18
f 47/1/11 50/1/11 49/1/11
f 50/1/11 47/1/11 48/1/11
f 50/1/8 39/1/8 49/1/8
f 53/1/11 52/1/11 51/1/11
f 52/1/11 53/1/11 54/1/11
f 52/1/8 42/1/8 51/1/8
f 52/1/2 44/1/2 42/1/2
f 44/1/2 52/1/2 54/1/2
f 53/1/10 42/1/10 44/1/10
f 42/1/10 53/1/10 51/1/10
f 54/1/1 53/1/1 44/1/1
f 57/1/13 56/1/12 55/1/12
f 55/1/12 59/1/14 58/1/14
f 58/1/14 61/1/15 60/1/15
f 61/1/15 62/1/16 60/1/15
f 61/1/15 58/1/14 59/1/14
f 59/1/14 55/1/12 56/1/12
f 56/1/12 57/1/13 63/1/13
f 66/1/17 65/1/16 64/1/17
f 57/1/11 67/1/11 63/1/11
f 67/1/11 57/1/11 68/1/11
f 67/1/18 70/1/18 69/1/18
f 70/1/18 67/1/18 68/1/18
f 67/1/8 56/1/8 63/1/8
f 56/1/8 67/1/8 59/1/8
f 59/1/8 67/1/8 61/1/8
f 61/1/8 67/1/8 65/1/8
f 65/1/8 67/1/8 64/1/8
f 64/1/8 67/1/8 69/1/8
f 70/1/19 64/1/17 69/1/19
f 64/1/17 70/1/19 66/1/17
f 65/1/16 66/1/17 62/1/16
f 62/1/16 61/1/15 65/1/16
f 55/1/1 68/1/1 57/1/1
f 68/1/1 55/1/1 58/1/1
f 68/1/1 58/1/1 60/1/1
f 68/1/1 60/1/1 62/1/1
f 68/1/1 62/1/1 66/1/1
f 68/1/1 66/1/1 70/1/1
f 73/1/21 72/1/20 71/1/20
f 72/1/20 73/1/21 74/1/21
f 77/1/22 76/1/23 75/1/22
f 80/1/24 79/1/23 78/1/24
f 81/1/26 63/1/25 57/1/25
f 63/1/25 81/1/26 82/1/26
f 80/1/18 68/1/18 67/1/18
f 68/1/18 80/1/18 78/1/18
f 68/1/27 63/1/27 67/1/27
f 63/1/27 68/1/27 57/1/27
f 82/1/8 67/1/8 63/1/8
f 67/1/8 82/1/8 72/1/8
f 67/1/8 72/1/8 74/1/8
f 67/1/8 74/1/8 75/1/8
f 67/1/8 75/1/8 76/1/8
f 67/1/8 76/1/8 80/1/8
f 71/1/20 82/1/26 81/1/26
f 82/1/26 71/1/20 72/1/20
f 73/1/21 75/1/22 74/1/21
f 75/1/22 73/1/21 77/1/22
f 76/1/23 77/1/22 79/1/23
f 79/1/23 80/1/24 76/1/23
f 68/1/1 81/1/1 57/1/1
f 81/1/1 68/1/1 71/1/1
f 71/1/1 68/1/1 73/1/1
f 73/1/1 68/1/1 77/1/1
f 77/1/1 68/1/1 79/1/1
f 79/1/1 68/1/1 78/1/1
f 85/1/13 84/1/12 83/1/12
f 83/1/12 87/1/14 86/1/14
f 86/1/14 89/1/15 88/1/15
f 89/1/15 90/1/16 88/1/15
f 89/1/15 86/1/14 87/1/14
f 87/1/14 83/1/12 84/1/12
f 84/1/12 85/1/13 91/1/13
f 94/1/17 93/1/16 92/1/17
f 85/1/11 95/1/11 91/1/11
f 95/1/11 85/1/11 96/1/11
f 95/1/18 98/1/18 97/1/18
f 98/1/18 95/1/18 96/1/18
f 95/1/8 84/1/8 91/1/8
f 84/1/8 95/1/8 87/1/8
f 87/1/8 95/1/8 89/1/8
f 89/1/8 95/1/8 93/1/8
f 93/1/8 95/1/8 92/1/8
f 92/1/8 95/1/8 97/1/8
f 98/1/19 92/1/17 97/1/19
f 92/1/17 98/1/19 94/1/17
f 93/1/16 94/1/17 90/1/16
f 90/1/16 89/1/15 93/1/16
f 83/1/1 96/1/1 85/1/1
f 96/1/1 83/1/1 86/1/1
f 96/1/1 86/1/1 88/1/1
f 96/1/1 88/1/1 90/1/1
f 96/1/1 90/1/1 94/1/1
f 96/1/1 94/1/1 98/1/1
f 101/1/21 100/1/20 99/1/20
f 100/1/20 101/1/21 102/1/21
f 105/1/22 104/1/23 103/1/22
f 108/1/24 107/1/23 106/1/24
f 109/1/26 91/1/25 85/1/25
f 91/1/25 109/1/26 110/1/26
f 108/1/18 96/1/18 95/1/18
f 96/1/18 108/1/18 106/1/18
f 96/1/27 91/1/27 95/1/27
f 91/1/27 96/1/27 85/1/27
f 110/1/8 95/1/8 91/1/8
f 95/1/8 110/1/8 100/1/8
f 95/1/8 100/1/8 102/1/8
f 95/1/8 102/1/8 103/1/8
f 95/1/8 103/1/8 104/1/8
f 95/1/8 104/1/8 108/1/8
f 99/1/20 110/1/26 109/1/26
f 110/1/26 99/1/20 100/1/20
f 101/1/21 103/1/22 102/1/21
f 103/1/22 101/1/21 105/1/22
f 104/1/23 105/1/22 107/1/23
f 107/1/23 108/1/24 104/1/23
f 96/1/1 109/1/1 85/1/1
f 109/1/1 96/1/1 99/1/1
f 99/1/1 96/1/1 101/1/1
f 101/1/1 96/1/1 105/1/1
f 105/1/1 96/1/1 107/1/1
f 107/1/1 96/1/1 106/1/1
f 113/1/27 112/1/27 111/1/27
f 112/1/27 113/1/27 114/1/27
f 114/1/21 115/1/21 112/1/21
f 115/1/21 114/1/21 116/1/21
f 115/1/8 111/1/8 112/1/8
f 115/1/18 113/1/18 111/1/18
f 113/1/18 115/1/18 116/1/18
f 116/1/1 114/1/1 113/1/1
f 118/1/27 115/1/27 117/1/27
f 115/1/27 118/1/27 116/1/27
f 116/1/21 119/1/21 115/1/21
f 119/1/21 116/1/21 120/1/21
f 119/1/8 117/1/8 115/1/8
f 119/1/18 118/1/18 117/1/18
f 118/1/18 119/1/18 120/1/18
f 120/1/1 116/1/1 118/1/1
f 123/1/27 122/1/27 121/1/27
f 122/1/27 123/1/27 124/1/27
f 124/1/21 125/1/21 122/1/21
f 125/1/21 124/1/21 126/1/21
f 125/1/8 121/1/8 122/1/8
f 125/1/18 123/1/18 121/1/18
f 123/1/18 125/1/18 126/1/18
f 126/1/1 124/1/1 123/1/1
f 129/1/8 128/1/8 127/1/8
f 130/1/27 128/1/27 129/1/27
f 128/1/27 130/1/27 131/1/27
f 132/1/28 129/1/28 127/1/28
f 129/1/28 132/1/28 130/1/28
f 132/1/10 128/1/10 131/1/10
f 128/1/10 132/1/10 127/1/10
f 130/1/1 132/1/1 131/1/1
f 134/1/27 125/1/27 133/1/27
f 125/1/27 134/1/27 126/1/27
f 126/1/21 135/1/21 125/1/21
f 135/1/21 126/1/21 136/1/21
f 135/1/8 133/1/8 125/1/8
f 135/1/18 134/1/18 133/1/18
f 134/1/18 135/1/18 136/1/18
f 136/1/1 126/1/1 134/1/1
f 139/1/8 138/1/8 137/1/8
f 139/1/8 137/1/8 140/1/8
f 139/1/8 140/1/8 141/1/8
f 139/1/8 142/1/8 138/1/8
f 142/1/8 144/1/8 143/1/8
f 144/1/8 142/1/8 139/1/8
f 141/1/30 145/1/29 139/1/29
f 145/1/29 141/1/30 146/1/30
f 148/1/10 144/1/10 147/1/10
f 144/1/10 148/1/10 143/1/10
f 137/1/28 149/1/31 140/1/31
f 149/1/31 137/1/28 150/1/28
f 148/1/32 142/1/33 143/1/32
f 142/1/33 148/1/32 151/1/33
f 151/1/33 138/1/34 142/1/33
f 138/1/34 151/1/33 152/1/34
f 152/1/34 137/1/28 138/1/34
f 137/1/28 152/1/34 150/1/28
f 140/1/31 146/1/30 141/1/30
f 146/1/30 140/1/31 149/1/31
f 145/1/27 144/1/27 139/1/27
f 144/1/27 145/1/27 147/1/27
f 145/1/1 148/1/1 147/1/1
f 148/1/1 145/1/1 151/1/1
f 151/1/1 145/1/1 152/1/1
f 152/1/1 145/1/1 150/1/1
f 150/1/1 145/1/1 149/1/1
f 149/1/1 145/1/1 146/1/1
f 155/1/21 154/1/20 153/1/20
f 154/1/20 155/1/21 156/1/21
f 159/1/22 158/1/23 157/1/22
f 143/1/24 160/1/23 148/1/24
f 163/1/26 162/1/25 161/1/25
f 162/1/25 163/1/26 164/1/26
f 143/1/18 147/1/18 144/1/18
f 147/1/18 143/1/18 148/1/18
f 147/1/27 162/1/27 144/1/27
f 162/1/27 147/1/27 161/1/27
f 164/1/8 144/1/8 162/1/8
f 144/1/8 164/1/8 154/1/8
f 144/1/8 154/1/8 156/1/8
f 144/1/8 156/1/8 157/1/8
f 144/1/8 157/1/8 158/1/8
f 144/1/8 158/1/8 143/1/8
f 153/1/20 164/1/26 163/1/26
f 164/1/26 153/1/20 154/1/20
f 155/1/21 157/1/22 156/1/21
f 157/1/22 155/1/21 159/1/22
f 158/1/23 159/1/22 160/1/23
f 160/1/23 143/1/24 158/1/23
f 147/1/1 163/1/1 161/1/1
f 163/1/1 147/1/1 153/1/1
f 153/1/1 147/1/1 155/1/1
f 155/1/1 147/1/1 159/1/1
f 159/1/1 147/1/1 160/1/1
f 160/1/1 147/1/1 148/1/1
f 54/1/27 165/1/27 52/1/27
f 165/1/27 54/1/27 166/1/27
f 167/1/18 54/1/18 52/1/18
f 54/1/18 167/1/18 168/1/18
f 124/1/10 165/1/10 166/1/10
f 165/1/10 124/1/10 122/1/10
f 124/1/11 167/1/11 122/1/11
f 167/1/11 124/1/11 168/1/11
f 167/1/8 165/1/8 122/1/8
f 165/1/8 167/1/8 52/1/8
f 54/1/1 124/1/1 166/1/1
f 124/1/1 54/1/1 168/1/1
f 168/1/27 169/1/27 167/1/27
f 169/1/27 168/1/27 170/1/27
f 129/1/18 168/1/18 167/1/18
f 168/1/18 129/1/18 130/1/18
f 131/1/10 169/1/10 170/1/10
f 169/1/10 131/1/10 128/1/10
f 131/1/11 129/1/11 128/1/11
f 129/1/11 131/1/11 130/1/11
f 129/1/8 169/1/8 128/1/8
f 169/1/8 129/1/8 167/1/8
f 168/1/1 131/1/1 170/1/1
f 131/1/1 168/1/1 130/1/1
f 168/1/27 121/1/27 167/1/27
f 121/1/27 168/1/27 123/1/27
f 129/1/18 168/1/18 167/1/18
f 168/1/18 129/1/18 130/1/18
f 126/1/10 121/1/10 123/1/10
f 121/1/10 126/1/10 125/1/10
f 126/1/11 129/1/11 125/1/11
f 129/1/11 126/1/11 130/1/11
f 129/1/8 121/1/8 125/1/8
f 121/1/8 129/1/8 167/1/8
f 168/1/1 126/1/1 123/1/1
f 126/1/1 168/1/1 130/1/1
f 44/1/27 171/1/27 42/1/27
f 171/1/27 44/1/27 172/1/27
f 51/1/18 44/1/18 42/1/18
f 44/1/18 51/1/18 53/1/18
f 166/1/10 171/1/10 172/1/10
f 171/1/10 166/1/10 165/1/10
f 166/1/11 51/1/11 165/1/11
f 51/1/11 166/1/11 53/1/11
f 51/1/8 171/1/8 165/1/8
f 171/1/8 51/1/8 42/1/8
f 44/1/1 166/1/1 172/1/1
f 166/1/1 44/1/1 53/1/1
f 131/1/27 133/1/27 128/1/27
f 133/1/27 131/1/27 134/1/27
f 127/1/18 131/1/18 128/1/18
f 131/1/18 127/1/18 132/1/18
f 136/1/10 133/1/10 134/1/10
f 133/1/10 136/1/10 135/1/10
f 136/1/11 127/1/11 135/1/11
f 127/1/11 136/1/11 132/1/11
f 127/1/8 133/1/8 135/1/8
f 133/1/8 127/1/8 128/1/8
f 131/1/1 136/1/1 134/1/1
f 136/1/1 131/1/1 132/1/1
f 46/1/27 39/1/27 45/1/27
f 39/1/27 46/1/27 36/1/27
f 41/1/18 46/1/18 45/1/18
f 46/1/18 41/1/18 43/1/18
f 48/1/10 39/1/10 36/1/10
f 39/1/10 48/1/10 50/1/10
f 48/1/11 41/1/11 50/1/11
f 41/1/11 48/1/11 43/1/11
f 41/1/8 39/1/8 50/1/8
f 39/1/8 41/1/8 45/1/8
f 46/1/1 48/1/1 36/1/1
f 48/1/1 46/1/1 43/1/1
f 34/1/27 38/1/27 33/1/27
f 38/1/27 34/1/27 35/1/27
f 29/1/18 34/1/18 33/1/18
f 34/1/18 29/1/18 31/1/18
f 37/1/10 38/1/10 35/1/10
f 38/1/10 37/1/10 40/1/10
f 37/1/11 29/1/11 40/1/11
f 29/1/11 37/1/11 31/1/11
f 29/1/8 38/1/8 40/1/8
f 38/1/8 29/1/8 33/1/8
f 34/1/1 37/1/1 35/1/1
f 37/1/1 34/1/1 31/1/1
f 172/1/27 173/1/27 171/1/27
f 173/1/27 172/1/27 174/1/27
f 165/1/18 172/1/18 171/1/18
f 172/1/18 165/1/18 166/1/18
f 175/1/10 173/1/10 174/1/10
f 173/1/10 175/1/10 176/1/10
f 175/1/11 165/1/11 176/1/11
f 165/1/11 175/1/11 166/1/11
f 165/1/8 173/1/8 176/1/8
f 173/1/8 165/1/8 171/1/8
f 172/1/1 175/1/1 174/1/1
f 175/1/1 172/1/1 166/1/1
f 166/2/27 177/2/27 165/2/27
f 177/2/27 166/2/27 178/2/27
f 179/2/18 166/2/18 165/2/18
f 166/2/18 179/2/18 180/2/18
f 181/2/10 177/2/10 178/2/10
f 177/2/10 181/2/10 182/2/10
f 181/2/11 179/2/11 182/2/11
f 179/2/11 181/2/11 180/2/11
f 179/2/8 177/2/8 182/2/8
f 177/2/8 179/2/8 165/2/8
f 166/2/1 181/2/1 178/2/1
f 181/2/1 166/2/1 180/2/1
f 180/2/27 183/2/27 179/2/27
f 183/2/27 180/2/27 184/2/27
f 185/2/18 180/2/18 179/2/18
f 180/2/18 185/2/18 186/2/18
f 187/2/10 183/2/10 184/2/10
f 183/2/10 187/2/10 188/2/10
f 187/2/11 185/2/11 188/2/11
f 185/2/11 187/2/11 186/2/11
f 185/2/8 183/2/8 188/2/8
f 183/2/8 185/2/8 179/2/8
f 180/2/1 187/2/1 184/2/1
f 187/2/1 180/2/1 186/2/1
f 186/1/27 188/1/27 185/1/27
f 188/1/27 186/1/27 187/1/27
f 189/1/18 186/1/18 185/1/18
f 186/1/18 189/1/18 190/1/18
f 191/1/10 188/1/10 187/1/10
f 188/1/10 191/1/10 192/1/10
f 191/1/11 189/1/11 192/1/11
f 189/1/11 191/1/11 190/1/11
f 189/1/8 188/1/8 192/1/8
f 188/1/8 189/1/8 185/1/8
f 186/1/1 191/1/1 187/1/1
f 191/1/1 186/1/1 190/1/1
f 190/1/27 111/1/27 189/1/27
f 111/1/27 190/1/27 113/1/27
f 193/1/18 190/1/18 189/1/18
f 190/1/18 193/1/18 194/1/18
f 116/1/10 111/1/10 113/1/10
f 111/1/10 116/1/10 115/1/10
f 116/1/11 193/1/11 115/1/11
f 193/1/11 116/1/11 194/1/11
f 193/1/8 111/1/8 115/1/8
f 111/1/8 193/1/8 189/1/8
f 190/1/1 116/1/1 113/1/1
f 116/1/1 190/1/1 194/1/1
f 194/1/27 195/1/27 193/1/27
f 195/1/27 194/1/27 196/1/27
f 122/1/18 194/1/18 193/1/18
f 194/1/18 122/1/18 124/1/18
f 197/1/10 195/1/10 196/1/10
f 195/1/10 197/1/10 198/1/10
f 197/1/11 122/1/11 198/1/11
f 122/1/11 197/1/11 124/1/11
f 122/1/8 195/1/8 198/1/8
f 195/1/8 122/1/8 193/1/8
f 194/1/1 197/1/1 196/1/1
f 197/1/1 194/1/1 124/1/1
f 174/2/27 199/2/27 173/2/27
f 199/2/27 174/2/27 200/2/27
f 176/2/18 174/2/18 173/2/18
f 174/2/18 176/2/18 175/2/18
f 178/2/10 199/2/10 200/2/10
f 199/2/10 178/2/10 177/2/10
f 178/2/11 176/2/11 177/2/11
f 176/2/11 178/2/11 175/2/11
f 176/2/8 199/2/8 177/2/8
f 199/2/8 176/2/8 173/2/8
f 174/2/1 178/2/1 200/2/1
f 178/2/1 174/2/1 175/2/1
f 184/3/27 201/3/27 183/3/27
f 201/3/27 184/3/27 202/3/27
f 203/3/18 184/3/18 183/3/18
f 184/3/18 203/3/18 204/3/18
f 205/3/10 201/3/10 202/3/10
f 201/3/10 205/3/10 206/3/10
f 205/3/11 203/3/11 206/3/11
f 203/3/11 205/3/11 204/3/11
f 203/3/8 201/3/8 206/3/8
f 201/3/8 203/3/8 183/3/8
f 184/3/1 205/3/1 202/3/1
f 205/3/1 184/3/1 204/3/1
f 204/2/27 207/2/27 203/2/27
f 207/2/27 204/2/27 208/2/27
f 209/2/18 204/2/18 203/2/18
f 204/2/18 209/2/18 210/2/18
f 211/2/10 207/2/10 208/2/10
f 207/2/10 211/2/10 212/2/10
f 211/2/11 209/2/11 212/2/11
f 209/2/11 211/2/11 210/2/11
f 209/2/8 207/2/8 212/2/8
f 207/2/8 209/2/8 203/2/8
f 204/2/1 211/2/1 208/2/1
f 211/2/1 204/2/1 210/2/1
f 210/3/27 213/3/27 209/3/27
f 213/3/27 210/3/27 214/3/27
f 215/3/18 210/3/18 209/3/18
f 210/3/18 215/3/18 216/3/18
f 217/3/10 213/3/10 214/3/10
f 213/3/10 217/3/10 218/3/10
f 217/3/11 215/3/11 218/3/11
f 215/3/11 217/3/11 216/3/11
f 215/3/8 213/3/8 218/3/8
f 213/3/8 215/3/8 209/3/8
f 210/3/1 217/3/1 214/3/1
f 217/3/1 210/3/1 216/3/1
f 216/2/27 219/2/27 215/2/27
f 219/2/27 216/2/27 220/2/27
f 192/2/18 216/2/18 215/2/18
f 216/2/18 192/2/18 191/2/18
f 221/2/10 219/2/10 220/2/10
f 219/2/10 221/2/10 222/2/10
f 221/2/11 192/2/11 222/2/11
f 192/2/11 221/2/11 191/2/11
f 192/2/8 219/2/8 222/2/8
f 219/2/8 192/2/8 215/2/8
f 216/2/1 221/2/1 220/2/1
f 221/2/1 216/2/1 191/2/1
f 196/1/27 117/1/27 195/1/27
f 117/1/27 196/1/27 118/1/27
f 198/1/18 196/1/18 195/1/18
f 196/1/18 198/1/18 197/1/18
f 120/1/10 117/1/10 118/1/10
f 117/1/10 120/1/10 119/1/10
f 120/1/11 198/1/11 119/1/11
f 198/1/11 120/1/11 197/1/11
f 198/1/8 117/1/8 119/1/8
f 117/1/8 198/1/8 195/1/8
f 196/1/1 120/1/1 118/1/1
f 120/1/1 196/1/1 197/1/1
f 202/2/27 182/2/27 201/2/27
f 182/2/27 202/2/27 181/2/27
f 206/2/18 202/2/18 201/2/18
f 202/2/18 206/2/18 205/2/18
f 223/2/10 182/2/10 181/2/10
f 182/2/10 223/2/10 224/2/10
f 223/2/11 206/2/11 224/2/11
f 206/2/11 223/2/11 205/2/11
f 206/2/8 182/2/8 224/2/8
f 182/2/8 206/2/8 201/2/8
f 202/2/1 223/2/1 181/2/1
f 223/2/1 202/2/1 205/2/1
f 214/2/27 212/2/27 213/2/27
f 212/2/27 214/2/27 211/2/27
f 218/2/18 214/2/18 213/2/18
f 214/2/18 218/2/18 217/2/18
f 225/2/10 212/2/10 211/2/10
f 212/2/10 225/2/10 226/2/10
f 225/2/11 218/2/11 226/2/11
f 218/2/11 225/2/11 217/2/11
f 218/2/8 212/2/8 226/2/8
f 212/2/8 218/2/8 213/2/8
f 214/2/1 225/2/1 211/2/1
f 225/2/1 214/2/1 217/2/1
f 200/1/27 49/1/27 199/1/27
f 49/1/27 200/1/27 47/1/27
f 182/1/18 200/1/18 199/1/18
f 200/1/18 182/1/18 181/1/18
f 227/1/10 49/1/10 47/1/10
f 49/1/10 227/1/10 228/1/10
f 227/1/11 182/1/11 228/1/11
f 182/1/11 227/1/11 181/1/11
f 182/1/8 49/1/8 228/1/8
f 49/1/8 182/1/8 199/1/8
f 200/1/1 227/1/1 47/1/1
f 227/1/1 200/1/1 181/1/1
f 181/1/27 229/1/27 182/1/27
f 229/1/27 181/1/27 230/1/27
f 224/1/18 181/1/18 182/1/18
f 181/1/18 224/1/18 223/1/18
f 208/1/10 229/1/10 230/1/10
f 229/1/10 208/1/10 207/1/10
f 208/1/11 224/1/11 207/1/11
f 224/1/11 208/1/11 223/1/11
f 224/1/8 229/1/8 207/1/8
f 229/1/8 224/1/8 182/1/8
f 181/1/1 208/1/1 230/1/1
f 208/1/1 181/1/1 223/1/1
f 220/1/27 226/1/27 219/1/27
f 226/1/27 220/1/27 225/1/27
f 231/1/18 220/1/18 219/1/18
f 220/1/18 231/1/18 232/1/18
f 233/1/10 226/1/10 225/1/10
f 226/1/10 233/1/10 234/1/10
f 233/1/11 231/1/11 234/1/11
f 231/1/11 233/1/11 232/1/11
f 231/1/8 226/1/8 234/1/8
f 226/1/8 231/1/8 219/1/8
f 220/1/1 233/1/1 225/1/1
f 233/1/1 220/1/1 232/1/1
f 232/1/27 235/1/27 231/1/27
f 235/1/27 232/1/27 236/1/27
f 222/1/18 232/1/18 231/1/18
f 232/1/18 222/1/18 221/1/18
f 114/1/10 235/1/10 236/1/10
f 235/1/10 114/1/10 112/1/10
f 114/1/11 222/1/11 112/1/11
f 222/1/11 114/1/11 221/1/11
f 222/1/8 235/1/8 112/1/8
f 235/1/8 222/1/8 231/1/8
f 232/1/1 114/1/1 236/1/1
f 114/1/1 232/1/1 221/1/1
f 230/1/27 228/1/27 229/1/27
f 228/1/27 230/1/27 227/1/27
f 234/1/18 230/1/18 229/1/18
f 230/1/18 234/1/18 233/1/18
f 236/1/10 228/1/10 227/1/10
f 228/1/10 236/1/10 235/1/10
f 236/1/11 234/1/11 235/1/11
f 234/1/11 236/1/11 233/1/11
f 234/1/8 228/1/8 235/1/8
f 228/1/8 234/1/8 229/1/8
f 230/1/1 236/1/1 227/1/1
f 236/1/1 230/1/1 233/1/1
f 4/1/27 25/1/27 14/1/27
f 25/1/27 4/1/27 19/1/27
f 237/1/18 4/1/18 14/1/18
f 4/1/18 237/1/18 238/1/18
f 239/1/10 25/1/10 19/1/10
f 25/1/10 239/1/10 240/1/10
f 239/1/11 237/1/11 240/1/11
f 237/1/11 239/1/11 238/1/11
f 237/1/8 25/1/8 240/1/8
f 25/1/8 237/1/8 14/1/8
f 4/1/1 239/1/1 19/1/1
f 239/1/1 4/1/1 238/1/1
f 243/1/27 242/1/27 241/1/27
f 242/1/27 243/1/27 244/1/27
f 139/1/18 243/1/18 241/1/18
f 243/1/18 139/1/18 145/1/18
f 161/1/10 242/1/10 244/1/10
f 242/1/10 161/1/10 162/1/10
f 161/1/11 139/1/11 162/1/11
f 139/1/11 161/1/11 145/1/11
f 139/1/8 242/1/8 162/1/8
f 242/1/8 139/1/8 241/1/8
f 243/1/1 161/1/1 244/1/1
f 161/1/1 243/1/1 145/1/1
f 246/1/27 69/1/27 245/1/27
f 69/1/27 246/1/27 70/1/27
f 247/1/18 246/1/18 245/1/18
f 246/1/18 247/1/18 248/1/18
f 78/1/10 69/1/10 70/1/10
f 69/1/10 78/1/10 80/1/10
f 78/1/11 247/1/11 80/1/11
f 247/1/11 78/1/11 248/1/11
f 247/1/8 69/1/8 80/1/8
f 69/1/8 247/1/8 245/1/8
f 246/1/1 78/1/1 70/1/1
f 78/1/1 246/1/1 248/1/1
f 250/1/27 97/1/27 249/1/27
f 97/1/27 250/1/27 98/1/27
f 251/1/18 250/1/18 249/1/18
f 250/1/18 251/1/18 252/1/18
f 106/1/10 97/1/10 98/1/10
f 97/1/10 106/1/10 108/1/10
f 106/1/11 251/1/11 108/1/11
f 251/1/11 106/1/11 252/1/11
f 251/1/8 97/1/8 108/1/8
f 97/1/8 251/1/8 249/1/8
f 250/1/1 106/1/1 98/1/1
f 106/1/1 250/1/1 252/1/1
f 180/2/27 183/2/27 179/2/27
f 183/2/27 180/2/27 184/2/27
f 185/2/18 180/2/18 179/2/18
f 180/2/18 185/2/18 186/2/18
f 187/2/10 183/2/10 184/2/10
f 183/2/10 187/2/10 188/2/10
f 187/2/11 185/2/11 188/2/11
f 185/2/11 187/2/11 186/2/11
f 185/2/8 183/2/8 188/2/8
f 183/2/8 185/2/8 179/2/8
f 180/2/1 187/2/1 184/2/1
f 187/2/1 180/2/1 186/2/1
f 194/1/27 195/1/27 193/1/27
f 195/1/27 194/1/27 196/1/27
f 122/1/18 194/1/18 193/1/18
f 194/1/18 122/1/18 124/1/18
f 197/1/10 195/1/10 196/1/10
f 195/1/10 197/1/10 198/1/10
f 197/1/11 122/1/11 198/1/11
f 122/1/11 197/1/11 124/1/11
f 122/1/8 195/1/8 198/1/8
f 195/1/8 122/1/8 193/1/8
f 194/1/1 197/1/1 196/1/1
f 197/1/1 194/1/1 124/1/1

